<?xml version="1.0" encoding="UTF-8" standalone="no"?><!DOCTYPE svg PUBLIC "-//W3C//DTD SVG 1.1//EN" "http://www.w3.org/Graphics/SVG/1.1/DTD/svg11.dtd"><svg width="100%" height="100%" viewBox="0 0 6934 5689" version="1.1" xmlns="http://www.w3.org/2000/svg" xmlns:xlink="http://www.w3.org/1999/xlink" xml:space="preserve" style="fill-rule:evenodd;clip-rule:evenodd;stroke-miterlimit:1.41421;"><path d="M3468.61,4998.03c-1362.33,0 -2466.72,-1104.39 -2466.72,-2466.72c0,-1362.33 1104.39,-2466.72 2466.72,-2466.72c1362.33,0 2466.72,1104.39 2466.72,2466.72c0,1362.33 -1104.39,2466.72 -2466.72,2466.72ZM2944.69,4714.02c133.061,-101.8 260.806,-219.378 380.156,-352.139c-61.017,-69.827 -119.667,-143.461 -175.684,-220.733l-226.955,567.389c7.478,1.872 14.972,3.689 22.483,5.483ZM3465.33,4193.58c76.967,-99.278 149.411,-205.434 216.472,-318.028l-213.2,-533.006l-215.816,539.539c65.966,110.161 137.072,214.145 212.544,311.495ZM3594.34,4348.94c123.094,138.55 255.255,260.973 393.161,366.306c9.194,-2.178 18.355,-4.422 27.505,-6.711l-238.4,-595.995c-58.055,82.75 -118.922,161.634 -182.266,236.4ZM3744.66,4758.74c-99.861,-77.633 -196.6,-163.088 -289.055,-256.4c-89.356,92.462 -182.595,177.356 -278.673,254.462c95.478,12.394 192.823,18.85 291.684,18.85c93.466,0 185.572,-5.812 276.044,-16.912ZM3468.61,286.955c-1239.52,0 -2244.35,1004.83 -2244.35,2244.35c0,991.416 642.878,1832.59 1534.47,2129.66l576.367,-1729.1c-167.728,-55.889 -288.712,-214.044 -288.712,-400.555c0,-233.189 189.039,-422.228 422.228,-422.228c233.189,0 422.228,189.039 422.228,422.228c0,186.511 -120.983,344.666 -288.711,400.555l576.367,1729.1c891.594,-297.061 1534.47,-1138.24 1534.47,-2129.66c0,-1239.52 -1004.83,-2244.35 -2244.35,-2244.35ZM4717.86,3780.56l-157.139,-157.139c279.494,-279.5 452.367,-665.616 452.367,-1092.12c0,-426.5 -172.873,-812.617 -452.367,-1092.12l157.139,-157.139c319.711,319.711 517.455,761.389 517.455,1249.26c0,487.861 -197.744,929.544 -517.455,1249.26ZM4077.49,3140.19c155.827,-155.828 252.205,-371.1 252.205,-608.883c0,-237.784 -96.383,-453.056 -252.205,-608.884l157.15,-157.15c196.044,196.045 317.3,466.878 317.3,766.034c0,299.155 -121.256,569.988 -317.3,766.033l-157.15,-157.15ZM2702.57,3297.34c-196.045,-196.045 -317.3,-466.878 -317.3,-766.033c0,-299.156 121.255,-569.989 317.3,-766.034l157.15,157.15c-155.822,155.828 -252.206,371.1 -252.206,608.884c0,237.783 96.384,453.055 252.206,608.883l-157.15,157.15ZM2219.35,3780.56c-319.711,-319.711 -517.461,-761.389 -517.461,-1249.26c0,-487.862 197.744,-929.539 517.461,-1249.26l157.139,157.139c-279.495,279.5 -452.367,665.622 -452.367,1092.12c0,426.5 172.872,812.616 452.367,1092.12l-157.139,157.139Z" style="fill:#fc7e0f;fill-rule:nonzero;stroke-width:5.56px;stroke:#fff;"/><g transform="matrix(7.26658,0,0,7.68604,-90.1799,-1866.28)"><text x="102.026px" y="972.187px" style="font-family:'HelveticaNeue-Bold', 'Helvetica Neue';font-weight:700;font-size:128.721px;fill:#000;">Over<tspan x="390.748px 464.634px " y="972.187px 972.187px ">ca</tspan>st</text><text x="688.738px" y="972.187px" style="font-family:'HelveticaNeue-Bold', 'Helvetica Neue';font-weight:700;font-size:128.721px;fill:#000;">FM</text></g><text x="3641.62px" y="6171.81px" style="font-family:'HelveticaNeue', 'Helvetica Neue';font-size:715.119px;fill:#000;">v</text></svg>